PathFileType	4	(X/Y/Z)	pose_F01_0-94.trc
DataRate	CameraRate	NumFrames	NumMarkers	Units	OrigDataRate	OrigDataStartFrame	OrigNumFrames
30	30	14	21	m	30	37	94
Frame#	Time	CHip			RHip			RKnee			RAnkle			RBigToe			RSmallToe			RHeel			LHip			LKnee			LAnkle			LBigToe			LSmallToe			LHeel			Neck			Nose			RShoulder			RElbow			RWrist			LShoulder			LElbow			LWrist			
		X1	Y1	Z1	X2	Y2	Z2	X3	Y3	Z3	X4	Y4	Z4	X5	Y5	Z5	X6	Y6	Z6	X7	Y7	Z7	X8	Y8	Z8	X9	Y9	Z9	X10	Y10	Z10	X11	Y11	Z11	X12	Y12	Z12	X13	Y13	Z13	X14	Y14	Z14	X15	Y15	Z15	X16	Y16	Z16	X17	Y17	Z17	X18	Y18	Z18	X19	Y19	Z19	X20	Y20	Z20	X21	Y21	Z21	
37	1.2333333333333334	-0.2823093953077776	1.8601576267058462	-0.6475845960460981	-0.29623094680857776	1.8573351354716987	-0.5827645857802984																-0.26611635382971943	1.8642386455677071	-0.709327323095708																-0.28053273615616087	2.020523841933719	-0.656500546164806	-0.26470758175585574	2.0934096181438684	-0.6405053176588805	-0.30279406674731546	2.0177834333579603	-0.5678355779476568	-0.31258870362066404	1.9289462229079708	-0.5436614854064055	-0.30994213546676375	1.8533299190227723	-0.5033940608015072	-0.2542441901862236	2.02570668084505	-0.7505600481720153	-1.1885120335103345	1.8466126162369918	0.14792327612961056	-0.23751938327828476	1.870427009062403	-0.7821541288286753
38	1.2666666666666666	-0.2846073556599056	1.8460094078802562	-0.6526575131669359	-0.29965471312373154	1.8447517376615497	-0.5908356511117799																-0.26742003302481	1.8506869832184876	-0.7112695569936626																-0.28089881026406227	2.0099325706347235	-0.6551675688164684	-0.2660698627342939	2.078367739402154	-0.6413467436629897	-0.30311064909769536	2.005470377378126	-0.5658453554675699	-0.314749679010819	1.9169161056952744	-0.5398297892546463	-0.3124273219029926	1.8424087173587245	-0.49987339235876554	-0.25467683727224016	2.0145499820882966	-0.7494636577671051	-1.1753538992756707	1.8344306937914396	0.13255696147039375	-0.23787601235937547	1.8647545283149736	-0.7814393768016334
39	1.3	-0.2824542830275717	1.8366924566167098	-0.65356768468336	-0.2982676261466912	1.8316111392354233	-0.5889332103477245																-0.26694502473792986	1.8396059713398591	-0.7109414949162699																-0.2791997731183512	1.995129679163529	-0.6553083471669	-0.26338100588036184	2.0640976076265907	-0.6383131701779851	-0.30049983186124324	1.9907352012873876	-0.5627154884331057	-0.3098490190855879	1.9029358801151273	-0.5390771560243919	-0.3101569840654465	1.8265189976140153	-0.5002856660623529	-0.2528749773208994	2.0001935760115175	-0.7499407119813305	-1.164327669288178	1.8213761923216614	0.11564547266907818	-0.23823264144046616	1.8590820475675442	-0.7807246247745917
40	1.3333333333333333	-0.28173860813307455	1.8265917861334964	-0.6536996608854748	-0.29688053916965085	1.818470540809297	-0.587030769583669																-0.2664700164510497	1.828524959461231	-0.7106134328388772																-0.2793976996812323	1.9817833081492922	-0.6534095754552591	-0.26281196727682704	2.051661875542204	-0.6336739903578983	-0.3007569948309237	1.978727428098641	-0.5609429717264718	-0.30923487334881156	1.8907018659409949	-0.5428405233451402	-0.3101502292339175	1.8201617271818247	-0.506317431687213	-0.2531194125245525	1.9872055572387244	-0.7481689480021532	-1.1524288058305443	1.8065547703915263	0.10354816501345086	-0.23858927052155685	1.853409566820115	-0.7800098727475498
41	1.3666666666666667	-0.2810229332385774	1.816491115650283	-0.6538316370875897	-0.29805873987691883	1.8135946911772474	-0.5897116125385371																-0.26599500816416954	1.8174439475826025	-0.7102853707614846																-0.2776090366759722	1.9733220322366936	-0.6546116484986154	-0.26205239396071495	2.042233145643541	-0.6292108345237076	-0.3010081745501507	1.9699019154672175	-0.559902546681153	-0.3096971524154482	1.8838302640061428	-0.5419175046892417	-0.3101434744023885	1.8138044567496339	-0.512349197312073	-0.2534191973231477	1.9782826925824486	-0.7474442391038735	-1.1398323169278732	1.7931074124090214	0.09020280065471918	-0.23894589960264756	1.8477370860726854	-0.779295120720508
42	1.4	-0.2810385159317985	1.8151819824747402	-0.6536447773201703	-0.29807442673980833	1.8122490460319491	-0.589553423331395																-0.26606432356111287	1.816615252113898	-0.7101163696545655																-0.2765945516272514	1.9697550890512223	-0.6510814935985287	-0.2622396579302227	2.0384179955132096	-0.6288074846904819	-0.30103728460264373	1.9673680346372635	-0.5594579400115659	-0.3074396844416208	1.8771431421630727	-0.543034297993523	-0.3082973915787067	1.7980866923808239	-0.5130331621632392	-0.2503615528764169	1.9750183854719074	-0.7460150027817338	-1.1426979563431556	1.7907934952760878	0.09760214938354665	-0.23930252868373825	1.842064605325256	-0.7785803686934661
43	1.4333333333333333	-0.2810540986250197	1.8138728492991973	-0.653457917552751	-0.2980901136026978	1.810903400886651	-0.5893952341242529																-0.2661336389580562	1.8157865566451936	-0.7099473685476464																-0.27650451072800597	1.972054315500765	-0.6513105437536699	-0.2600602012292581	2.0412785400332063	-0.6311860954456678	-0.29810320207804325	1.9671835605622383	-0.5585542252991584	-0.3063605843828447	1.8806998415790002	-0.5403332731524897	-0.3068140089689673	1.803552992706981	-0.519018926806609	-0.24945829429373695	1.9770030640519956	-0.7433465164502531	-1.1526971317242392	1.7964222211844583	0.11265421528630301	-0.23965915776482893	1.8363921245778267	-0.7778656166664244
44	1.4666666666666666	-0.28077636077506657	1.821669021483318	-0.654439533372296	-0.29582973079565106	1.8190972022962146	-0.5924705399965825																-0.2657353912925506	1.8222380370035582	-0.7108877895917917																-0.2766294890878436	1.9765521042613823	-0.6523806620409783	-0.25986404373472877	2.0477224456622958	-0.6319395941578947	-0.30100663888521983	1.9734476292007337	-0.5605816210896098	-0.30733725186898075	1.8906193056129428	-0.544917908893624	-0.30755237384785084	1.8185333085101965	-0.5152977323533194	-0.25015122282156255	1.9818466310673037	-0.7469234336351638	-1.1514765689777275	1.8001418340895377	0.10816347901632947	-0.24001578684591965	1.8307196438303974	-0.7771508646393825
45	1.5	-0.27843903531102127	1.831751306399067	-0.6490973844100729	-0.2950197900675291	1.8308643953672954	-0.5921793250318019																-0.26382936000714863	1.8352869680413004	-0.7116731959735849																-0.27619148280235395	1.990283443589338	-0.6538764999080453	-0.2617444969472361	2.0579208741418276	-0.6317293261078977	-0.30055497623507965	1.9868428197867263	-0.5623580304666612	-0.3069451267548839	1.9007785764446832	-0.5460239549549579	-0.30632590555493494	1.825436471062328	-0.5129580923755334	-0.24972432046691534	1.995640667000825	-0.7481557687073503	-1.1614592469588656	1.8133262305135147	0.11897432857745945	-0.24037241592701034	1.825047163082968	-0.7764361126123407
46	1.5333333333333334	-0.2789807040360144	1.8470198463457754	-0.6539235388254959	-0.29420984933940714	1.8426315884383762	-0.5918881100670215																-0.26192332872174673	1.8483358990790426	-0.7124586023553783																-0.27573205651198085	2.005253399904209	-0.6558081294598728	-0.2601578542711171	2.074496130943126	-0.6393593559312657	-0.298050671997513	2.003270440886438	-0.5665825685725016	-0.3053608650992908	1.9155098522718113	-0.5448361460947171	-0.305190920401223	1.8379294202644054	-0.5112725790061816	-0.2493463962289233	2.0095142442131237	-0.7498733384702998	-1.1763945829019722	1.8265552398582687	0.14149246520160488	-0.2391495773939985	1.8447801858637776	-0.7828864839000208
47	1.5666666666666667	-0.27712085456353147	1.861771253636244	-0.6490700393406446	-0.29207870002810193	1.85825227007436	-0.5872432459467223																-0.2609070747454932	1.8645491572664945	-0.7108726814191934																-0.27544734636809576	2.0189578758002766	-0.6578190331593523	-0.258808453408357	2.0871242942806223	-0.6381603338466723	-0.29968767989761885	2.0172314396539095	-0.5668194263996715	-0.3052693731591889	1.9327082402529319	-0.5473448645416782	-0.304055935247511	1.850422369466483	-0.50958706563683	-0.24892945493787802	2.0245746376883913	-0.7515033511043108	-1.1866324280538632	1.840546927999354	0.15344197296215387	-0.23728036267150643	1.8617463488143662	-0.7818710258601603
48	1.6	-0.2766369694546406	1.8756827876000353	-0.6505653246018329	-0.29289767036041475	1.8711866585212886	-0.5835461731343624																-0.2626443982202449	1.877458424906082	-0.7101316539307408																-0.27697709154422545	2.0348819990699627	-0.6575527554995543	-0.2605318603509203	2.099493410784532	-0.6376791425970233	-0.29932518593924323	2.031691911433838	-0.5689653370879243	-1.537692757542144	1.852675233214341	0.7429548337841493	-0.3066109497686987	1.8683622110271103	-0.5044131192625639	-0.2476447512144042	2.0410892458962717	-0.750527820459252	-1.1970467550978534	1.8561260035323077	0.16574690452607013	-0.677557390017685	1.8276738497536953	-0.35294399625309925
49	1.6333333333333333	-0.2763364581689551	1.8847756674596008	-0.6514744937249034	-0.2926220803842412	1.8801296320933047	-0.584548991485759																-0.2602219047581205	1.886158643641624	-0.7130412237030632																-0.2737530810955088	2.0446090090685693	-0.6579994545896297	-0.2590309132022598	2.1096815822988453	-0.6354578593758753	-0.29807373205798937	2.040253742832981	-0.5670502375645906	-1.5483085915910275	1.862557887384259	0.7616356671957877	-0.30694704161174374	1.8817229226227639	-0.5005876280427773	-0.24733535225781503	2.0524925746056066	-0.7519122421611903	-0.2394618737402427	1.9706706210812488	-0.7791425489409013	-1.1178344173638637	1.7936013506930242	0.07598303335396182
50	1.6666666666666667	-0.2766452698636447	1.8826292305852224	-0.6512520974963989	-0.29567920607916964	1.8796410011069793	-0.5853771326812461																-0.26267077776777614	1.8858798117673612	-0.71085475481851																-0.2735403749771407	2.0501853069468616	-0.6586672938893031	-0.25912041394861235	2.1109385336178796	-0.6359428033408412	-0.29784457257097136	2.0443094406863747	-0.5673449874231964	-1.5517070401506012	1.8676677090758163	0.7658348637369834	-0.3070738300053071	1.8849063042660115	-0.49242407380795294	-0.2471347977429545	2.0575394008892753	-0.7525410553654045	-0.23727166968257246	1.9740005955356523	-0.7817740200728452	-1.1206041745377666	1.7966759354331487	0.07892605979399026
